<svg xmlns="http://www.w3.org/2000/svg" viewBox="0 0 769.728 221.848" width="769.728" height="221.848"><title>Finch</title><g transform="translate(129.506 90.165) scale(0.89412)"><mask id="m" maskUnits="userSpaceOnUse" x="-200" y="-200" width="400" height="400"><rect x="-200" y="-200" width="400" height="400" fill="#fff"/><circle cx="29.60" cy="-26.64" r="9.25" fill="#000"/></mask><path d="M-68.73 -27.43 L-118.00 96.00 L12.88 72.87 A74.0 74.0 0 1 0 -68.73 -27.43 Z" fill="#F6F3EC" mask="url(#m)"/><path d="M58.27 -56.27 Q94.13 -39.13 120.00 -8.00 L80.56 8.47 A81.0 81.0 0 0 0 58.27 -56.27 Z" fill="#E9A23B"/></g><g transform="translate(270.800 14.000) scale(1.00000)"><g fill="none" stroke="#F6F3EC" stroke-width="22" stroke-linejoin="round"><path transform="translate(0.00 0)" d="M11.0 140 V41.0 A30 30 0 0 1 41.0 11.0 H57.0 M0 51.0 H51.0"/><path transform="translate(76.00 0)" d="M11.0 140 V40"/><path transform="translate(118.00 0)" d="M11.0 140 V40 M11.0 95.0 A44 44 0 0 1 99.0 95.0 V140"/><path transform="translate(248.00 0)" d="M92.93 64.55 A47 47 0 1 0 92.93 127.45"/><path transform="translate(364.93 0)" d="M11.0 140 V0 M11.0 95.0 A44 44 0 0 1 99.0 95.0 V140"/></g><circle cx="87.00" cy="13.00" r="14.00" fill="#E9A23B"/></g><g transform="translate(270.800 180.000) scale(0.17848)" fill="none" stroke="#A4A7AC" stroke-width="11" stroke-linejoin="round"><path transform="translate(0.00 0)" d="M0 100 L40 0 L80 100 M15 64 H65"/><path transform="translate(122.00 0)" d="M0 100 V0 L72 100 V0"/><path transform="translate(280.00 0)" d="M50 0 A50 50 0 1 0 50 100 A50 50 0 1 0 50 0 Z"/><path transform="translate(422.00 0)" d="M0 100 V0 H34 A27 27 0 0 1 34 54 H0"/><path transform="translate(525.00 0)" d="M58 0 H0 V100 H58 M0 50 H50"/><path transform="translate(625.00 0)" d="M0 100 V0 L72 100 V0"/><path transform="translate(783.00 0)" d="M50 0 A50 50 0 1 0 50 100 A50 50 0 1 0 50 0 Z"/><path transform="translate(925.00 0)" d="M52.30 10.09 A26.0 25 0 1 0 31.00 50.00 A28.0 25 0 1 1 6.75 89.00"/><path transform="translate(1073.00 0)" d="M58 0 H0 V100 M0 50 H50"/><path transform="translate(1169.00 0)" d="M50 0 A50 50 0 1 0 50 100 A50 50 0 1 0 50 0 Z"/><path transform="translate(1311.00 0)" d="M0 100 V0 H34 A27 27 0 0 1 34 54 H0 M30 54 L64 100"/><path transform="translate(1461.00 0)" d="M0 100 L40 0 L80 100 M15 64 H65"/><path transform="translate(1583.00 0)" d="M0 100 V0 H34 A27 27 0 0 1 34 54 H0"/><path transform="translate(1686.00 0)" d="M0 100 V0 H34 A27 27 0 0 1 34 54 H0"/><path transform="translate(1789.00 0)" d="M0 0 V100 H54"/><path transform="translate(1885.00 0)" d="M58 0 H0 V100 H58 M0 50 H50"/><path transform="translate(2029.00 0)" d="M52.30 10.09 A26.0 25 0 1 0 31.00 50.00 A28.0 25 0 1 1 6.75 89.00"/><path transform="translate(2133.00 0)" d="M0 0 V100"/><path transform="translate(2175.00 0)" d="M0 0 V100 H54"/><path transform="translate(2271.00 0)" d="M0 0 V100"/><path transform="translate(2313.00 0)" d="M88.30 17.86 A50 50 0 1 0 88.30 82.14"/><path transform="translate(2447.00 0)" d="M50 0 A50 50 0 1 0 50 100 A50 50 0 1 0 50 0 Z"/><path transform="translate(2589.00 0)" d="M0 100 V0 L72 100 V0"/></g></svg>
